<?xml version="1.0" standalone="no"?>
<!DOCTYPE svg PUBLIC "-//W3C//DTD SVG 20010904//EN"
 "http://www.w3.org/TR/2001/REC-SVG-20010904/DTD/svg10.dtd">
<svg version="1.0" xmlns="http://www.w3.org/2000/svg"
 width="1024.000000pt" height="1024.000000pt" viewBox="0 0 1024.000000 1024.000000"
 preserveAspectRatio="xMidYMid meet">
<metadata>
Created by potrace 1.14, written by Peter Selinger 2001-2017
</metadata>
<g transform="translate(0.000000,1024.000000) scale(0.100000,-0.100000)"
fill="#000000" stroke="none">
<path d="M0 5120 l0 -5120 5120 0 5120 0 0 5120 0 5120 -5120 0 -5120 0 0
-5120z m5149 4108 c15 -134 62 -261 141 -380 123 -188 215 -278 513 -505 164
-124 322 -265 450 -400 192 -202 324 -434 408 -718 96 -321 115 -430 106 -610
-5 -106 -49 -340 -67 -359 -5 -5 -6 1 -3 13 3 13 1 21 -6 21 -7 0 -9 5 -6 10
3 6 3 10 -2 10 -4 0 -18 -21 -30 -48 -13 -26 -23 -41 -23 -34 0 19 -20 4 -20
-16 -1 -9 -11 -41 -24 -71 l-24 -55 -21 42 c-11 23 -21 48 -21 57 0 8 -5 15
-11 15 -5 0 -8 4 -5 9 8 12 -15 75 -23 64 -8 -11 -41 -13 -41 -2 0 5 -9 9 -20
9 -10 0 -23 7 -28 16 -5 9 -24 16 -45 17 l-37 2 0 125 c-1 197 -18 459 -35
525 -21 82 -112 277 -165 356 -121 179 -320 333 -535 415 l-60 22 3 89 3 90
-168 11 c-92 7 -174 12 -181 12 -20 0 -88 153 -115 260 -37 143 -51 268 -51
450 0 188 16 336 45 430 23 74 81 221 85 217 2 -2 8 -42 13 -89z m2044 -1059
c32 -26 37 -36 37 -71 0 -54 -51 -108 -101 -108 -36 0 -80 24 -104 56 -23 30
-19 87 8 111 58 53 106 57 160 12z m-3303 -156 c37 -25 49 -45 50 -76 0 -65
-58 -120 -116 -109 -13 2 -37 20 -54 39 -41 46 -40 85 4 129 39 39 77 44 116
17z m1420 -330 c0 -93 -4 -97 -84 -89 -102 11 -103 11 -94 -86 6 -76 -7 -478
-18 -555 -3 -18 -9 -33 -15 -33 -6 0 -8 -4 -5 -9 8 -12 -28 -51 -46 -51 -21 0
-26 57 -38 430 -5 173 -12 345 -15 382 l-6 67 108 4 c59 1 132 4 161 5 l52 2
0 -67z m373 -231 c87 -56 118 -83 159 -134 30 -39 31 -40 6 -24 -23 15 -34 16
-85 6 l-58 -12 -80 46 c-44 25 -85 46 -91 46 -22 0 -31 25 -37 96 l-6 72 62
-26 c34 -14 93 -46 130 -70z m-861 12 l3 -76 -55 -28 c-165 -83 -264 -196
-344 -392 -13 -34 -19 -38 -49 -38 -55 0 -97 11 -97 26 0 43 63 200 106 266
80 120 166 194 319 275 112 59 113 59 117 -33z m-1391 -359 c29 -47 62 -120
80 -175 27 -82 32 -114 36 -235 8 -198 -9 -258 -128 -455 -28 -47 -67 -116
-87 -155 -19 -38 -37 -72 -39 -74 -8 -11 -41 33 -36 47 4 13 3 14 -6 6 -16
-15 -74 -174 -94 -259 -9 -38 -21 -145 -25 -236 -7 -137 -12 -172 -28 -197
-16 -27 -178 -258 -201 -287 -20 -25 -31 -63 -22 -76 12 -19 11 -32 -1 -24
-16 10 -66 113 -89 185 -40 121 -53 240 -48 425 4 154 8 183 41 309 51 194 98
287 252 496 153 207 211 303 255 425 31 85 33 97 33 230 1 77 -2 156 -6 175
l-8 35 36 -40 c19 -22 57 -76 85 -120z m3602 -153 c166 -275 225 -391 262
-514 29 -96 66 -341 72 -473 7 -148 -10 -305 -33 -318 -8 -4 -14 -17 -14 -28
0 -10 -4 -27 -10 -37 -5 -9 -23 -55 -39 -103 -36 -105 -60 -156 -133 -286 -99
-175 -271 -388 -291 -361 -6 10 -7 8 -4 -3 6 -20 -41 -69 -66 -69 -10 0 -17 8
-17 20 0 11 -4 20 -10 20 -5 0 -10 9 -10 19 0 10 -7 21 -15 25 -8 3 -15 13
-16 23 -1 12 -3 10 -9 -7 -7 -23 -8 -23 -9 -4 -1 22 -25 34 -68 34 -14 0 -23
6 -23 15 0 23 -41 19 -47 -5 -7 -25 -12 -25 -30 -2 -13 16 -14 15 -9 -6 3 -17
1 -22 -9 -18 -8 3 -17 1 -20 -4 -4 -6 -15 -10 -25 -10 -10 0 -23 -7 -28 -17
-9 -14 -10 -14 -16 5 -7 22 -26 31 -26 12 0 -5 5 -10 11 -10 5 0 7 -5 4 -10
-4 -6 -16 -8 -27 -4 -14 4 -18 2 -14 -5 4 -6 2 -11 -3 -11 -6 0 -11 -9 -11
-20 0 -11 -6 -20 -14 -20 -8 0 -16 -7 -20 -15 -3 -9 -12 -12 -23 -8 -16 6 -17
5 -3 -13 14 -18 14 -18 -5 -3 -57 46 -65 54 -65 65 0 6 -13 17 -30 24 -16 7
-30 17 -30 23 0 6 -3 8 -6 4 -4 -3 -24 3 -45 13 -21 11 -49 21 -61 21 -21 1
-21 2 -3 7 l20 5 -20 8 c-17 6 -17 8 -2 8 9 1 17 4 17 7 0 11 -29 34 -44 34
-9 0 -16 8 -16 20 0 11 -4 20 -10 20 -15 0 -12 48 3 53 6 2 9 8 5 12 -4 4 -13
3 -20 -3 -7 -5 -29 -13 -48 -16 -19 -3 -91 -23 -158 -46 -68 -22 -131 -42
-140 -43 -10 -2 -38 -13 -64 -24 -47 -21 -48 -23 -50 -70 -1 -29 -4 -12 -8 42
-3 50 -4 95 -3 100 3 9 35 20 248 81 117 33 293 99 375 139 400 200 718 601
819 1035 46 195 53 497 16 700 -25 142 -22 142 68 -8z m-1520 -359 l346 -6 3
-79 3 -78 -170 -2 -170 -1 182 -8 c100 -4 191 -12 202 -19 23 -12 30 -60 9
-60 -7 0 -354 -3 -770 -6 l-758 -7 0 29 c0 61 -11 59 342 58 232 -1 289 0 203
6 -66 4 -187 8 -270 9 -82 1 -156 5 -164 10 -10 7 -12 24 -6 79 7 70 7 71 38
75 56 7 624 7 980 0z m-236 -669 c75 -36 106 -81 111 -158 5 -78 -9 -131 -49
-179 -68 -82 -149 -110 -243 -83 -65 19 -107 52 -142 112 -40 69 -48 117 -28
180 44 142 204 200 351 128z m2769 -8 c50 -50 45 -104 -13 -134 -39 -21 -69
-14 -102 23 -17 20 -31 42 -31 50 0 23 70 95 92 95 11 0 35 -15 54 -34z
m-4006 -169 c0 -33 23 -60 74 -86 24 -13 69 -46 98 -73 29 -28 46 -47 38 -42
-10 5 -9 1 4 -14 10 -12 23 -20 30 -19 6 1 10 -5 8 -15 -3 -17 51 -62 62 -51
3 3 6 -5 6 -19 0 -14 8 -32 18 -39 15 -13 16 -12 3 4 -12 15 -11 17 3 17 9 0
16 -8 16 -20 0 -11 6 -20 13 -20 19 0 49 -35 40 -45 -5 -4 -3 -5 3 -2 6 4 20
-3 30 -16 19 -21 19 -21 0 -7 -18 13 -19 13 -14 -1 5 -12 1 -15 -18 -11 -13 2
-32 1 -41 -4 -10 -4 -22 -8 -28 -8 -5 -1 -9 -9 -7 -18 2 -12 -17 -30 -55 -54
-264 -169 -376 -254 -542 -410 -85 -79 -262 -284 -296 -342 -10 -17 -27 -33
-37 -35 -11 -3 -18 -14 -18 -28 0 -12 -3 -19 -6 -16 -7 7 -64 -60 -64 -74 0
-5 -9 -9 -20 -9 -11 0 -20 7 -20 15 0 11 -12 15 -45 15 -32 0 -45 -4 -45 -14
0 -18 -31 -26 -110 -26 -75 0 -110 -8 -110 -23 0 -6 -10 -21 -22 -34 -12 -13
-16 -23 -10 -23 7 0 12 -5 12 -11 0 -7 -12 -9 -30 -7 -17 3 -33 1 -36 -4 -7
-11 -24 0 -24 15 0 7 4 6 10 -3 7 -11 10 -1 10 35 -1 32 -4 45 -9 35 -7 -13
-31 -110 -46 -190 -3 -14 -9 -36 -14 -50 -45 -121 -49 -647 -5 -773 9 -26 14
-50 12 -53 -8 -8 -58 169 -83 291 -66 331 -47 588 67 935 54 165 109 274 244
487 52 80 217 282 311 378 120 124 333 297 487 396 77 49 143 89 148 89 4 0 8
-10 8 -23z m3530 -569 c33 -186 40 -587 10 -538 -5 8 -10 -2 -15 -29 -9 -56
-34 -103 -56 -108 -11 -3 -19 -14 -19 -24 0 -11 -4 -19 -10 -19 -5 0 -10 -6
-10 -12 0 -10 -17 -12 -61 -10 -49 3 -67 9 -85 28 -13 12 -24 30 -24 39 0 14
-24 20 -58 16 -10 -2 -12 4 -7 19 4 12 -58 -43 -137 -122 -117 -118 -167 -160
-277 -232 -193 -127 -542 -296 -756 -366 -38 -12 -108 -40 -155 -60 -47 -21
-114 -50 -148 -66 -38 -16 -67 -36 -72 -48 -6 -14 -9 2 -9 50 l-1 72 158 62
c86 34 209 82 272 107 489 189 714 321 939 552 124 127 286 363 355 517 41 94
115 316 117 353 1 36 29 -65 49 -181z m-2290 75 l0 -63 -124 0 c-78 0 -127 4
-131 11 -4 6 -4 34 -1 63 l7 53 124 -1 125 -1 0 -62z m-506 -225 c3 -35 8 -93
11 -130 l6 -68 -123 0 c-118 1 -126 2 -191 34 l-69 33 69 40 c209 123 260 151
275 152 13 1 17 -11 22 -61z m473 -24 c29 -6 31 -8 37 -77 4 -39 3 -74 -2 -79
-5 -5 -68 -11 -140 -15 l-132 -6 0 91 0 92 104 0 c57 0 117 -3 133 -6z m746
-101 c-7 -2 -19 -2 -25 0 -7 3 -2 5 12 5 14 0 19 -2 13 -5z m2151 -94 c34 -40
33 -62 -5 -93 -40 -34 -64 -33 -100 3 -36 36 -37 57 -2 93 36 38 74 37 107 -3z
m-3747 -129 c18 -10 40 -31 49 -46 l18 -26 300 3 c166 1 483 1 705 0 l404 -2
28 34 c50 61 131 56 192 -12 77 -85 71 -194 -15 -266 -27 -23 -39 -26 -76 -22
-55 6 -94 34 -107 75 -6 22 -14 31 -25 28 -8 -3 -329 -6 -713 -8 -644 -3 -698
-4 -703 -20 -3 -9 -21 -31 -40 -47 -47 -42 -105 -43 -161 -2 -110 80 -93 250
32 319 31 17 77 14 112 -8z m-427 -242 c0 -38 -40 -118 -106 -208 -72 -100
-176 -300 -298 -575 -29 -66 -37 -91 -71 -225 -19 -77 -39 -147 -44 -157 -5
-10 -14 -38 -20 -63 -13 -59 -4 187 10 275 36 219 199 581 374 829 126 180
136 191 147 174 4 -7 8 -30 8 -50z m2420 13 c0 -6 -4 -13 -10 -16 -5 -3 -10 1
-10 9 0 9 5 16 10 16 6 0 10 -4 10 -9z m-2999 -154 c-10 -9 -11 -8 -5 6 3 10
9 15 12 12 3 -3 0 -11 -7 -18z m1538 -132 c35 -53 84 -118 109 -146 l45 -50
-2 -1245 -2 -1245 30 -28 c44 -41 67 -44 92 -13 21 25 22 26 16 5 -3 -13 -1
-26 4 -29 5 -3 9 -14 9 -25 0 -14 -5 -19 -17 -17 -10 2 -17 10 -15 16 1 7 -2
12 -6 12 -5 0 -14 -19 -21 -41 -14 -48 -5 -443 10 -433 14 8 11 -10 -7 -45
-20 -40 -24 -37 -105 82 -34 51 -98 137 -141 193 l-78 100 -2 1502 c-2 996 0
1502 7 1502 6 0 39 -43 74 -95z m530 -1375 c-1 -784 2 -1446 6 -1471 l7 -46
-84 -104 c-46 -57 -95 -120 -110 -141 -18 -23 -34 -35 -45 -33 -10 2 -21 4
-25 4 -16 2 -7 21 8 21 14 0 16 8 11 52 -4 36 -3 48 3 38 8 -12 10 -11 10 8 0
15 6 22 20 22 13 0 20 7 20 20 0 13 7 20 19 20 28 0 75 66 76 106 1 19 -2 34
-7 34 -12 0 -10 118 3 122 7 2 8 17 4 41 -6 30 -11 37 -31 37 -17 0 -24 6 -24
20 0 13 7 20 20 20 11 0 20 6 20 14 0 8 3 21 6 30 4 10 -3 19 -20 27 -21 10
-26 19 -26 49 0 34 -3 38 -30 44 -27 5 -30 10 -30 41 0 20 -4 34 -9 31 -5 -4
-11 442 -13 1072 l-4 1077 31 40 c52 68 151 209 165 234 10 19 14 21 21 10 6
-8 9 -594 8 -1439z m-832 1348 c-2 -13 -4 -5 -4 17 -1 22 1 32 4 23 2 -10 2
-28 0 -40z m3038 -423 c3 -38 2 -61 -1 -51 -5 16 -9 13 -19 -17 -11 -32 -44
-94 -159 -297 -43 -76 -202 -232 -314 -308 -99 -68 -308 -173 -432 -218 -41
-15 -97 -37 -125 -49 -27 -13 -79 -35 -115 -50 -98 -41 -185 -91 -285 -165
-203 -150 -284 -246 -395 -466 -44 -87 -83 -160 -88 -163 -5 -3 -12 -13 -15
-21 -4 -12 -6 -12 -6 2 -1 9 6 23 14 32 20 20 19 26 -5 26 -57 0 6 218 105
366 83 122 243 268 390 356 93 56 229 121 357 172 467 186 686 329 863 561 79
103 119 174 167 296 48 123 56 122 63 -6z m-5603 -145 c14 -11 33 -35 42 -55
17 -34 16 -37 -4 -70 -47 -75 -110 -87 -166 -31 -49 49 -47 92 6 140 46 41 84
47 122 16z m2574 -202 c-3 -18 -8 -72 -12 -120 -6 -83 -8 -89 -45 -130 -22
-24 -62 -88 -89 -143 -27 -55 -50 -90 -50 -79 0 16 -7 23 -30 26 -35 5 -45 0
-53 -27 -18 -60 -46 -128 -47 -113 0 27 98 295 136 371 92 183 208 313 190
215z m1061 -1450 c-3 -8 -6 -5 -6 6 -1 11 2 17 5 13 3 -3 4 -12 1 -19z m-2435
-20 c9 -7 18 -26 21 -42 11 -67 -35 -107 -100 -85 -52 17 -70 71 -37 117 12
17 25 22 58 22 23 0 49 -6 58 -12z m2018 -228 c0 -5 -4 -10 -10 -10 -5 0 -10
5 -10 10 0 6 5 10 10 10 6 0 10 -4 10 -10z m-83 -572 c-3 -8 -6 -5 -6 6 -1 11
2 17 5 13 3 -3 4 -12 1 -19z m43 -118 c0 -5 -5 -10 -11 -10 -5 0 -7 5 -4 10 3
6 8 10 11 10 2 0 4 -4 4 -10z"/>
<path d="M5148 6423 c34 -2 88 -2 120 0 31 2 3 3 -63 3 -66 0 -92 -1 -57 -3z"/>
<path d="M5234 5624 c-18 -14 -18 -15 4 -4 12 6 22 13 22 15 0 8 -5 6 -26 -11z"/>
<path d="M2975 4420 c-3 -5 -1 -10 4 -10 6 0 11 5 11 10 0 6 -2 10 -4 10 -3 0
-8 -4 -11 -10z"/>
<path d="M2945 4310 c3 -5 8 -10 11 -10 2 0 4 5 4 10 0 6 -5 10 -11 10 -5 0
-7 -4 -4 -10z"/>
<path d="M2925 4290 c-3 -5 -1 -10 4 -10 6 0 11 5 11 10 0 6 -2 10 -4 10 -3 0
-8 -4 -11 -10z"/>
<path d="M7456 4925 c-9 -26 -7 -32 5 -12 6 10 9 21 6 23 -2 3 -7 -2 -11 -11z"/>
<path d="M5257 2004 c-11 -11 -8 -144 4 -187 11 -42 19 -44 19 -6 1 139 -7
208 -23 193z"/>
<path d="M5290 1790 c0 -20 5 -30 15 -30 10 0 15 10 15 30 0 20 -5 30 -15 30
-10 0 -15 -10 -15 -30z"/>
<path d="M5390 1410 c0 -5 5 -10 10 -10 6 0 10 5 10 10 0 6 -4 10 -10 10 -5 0
-10 -4 -10 -10z"/>
</g>
</svg>
